<mxfile host="Electron" modified="2024-02-18T19:33:22.759Z" agent="Mozilla/5.0 (X11; Linux x86_64) AppleWebKit/537.36 (KHTML, like Gecko) draw.io/23.1.5 Chrome/120.0.6099.109 Electron/28.1.0 Safari/537.36" etag="QvU8ZiZRmOxHhqXnftMp" version="23.1.5" type="device">
  <diagram id="C5RBs43oDa-KdzZeNtuy" name="Page-1">
    <mxGraphModel dx="2013" dy="729" grid="1" gridSize="10" guides="1" tooltips="1" connect="1" arrows="1" fold="1" page="1" pageScale="1" pageWidth="827" pageHeight="1169" math="0" shadow="0">
      <root>
        <mxCell id="WIyWlLk6GJQsqaUBKTNV-0" />
        <mxCell id="WIyWlLk6GJQsqaUBKTNV-1" parent="WIyWlLk6GJQsqaUBKTNV-0" />
        <mxCell id="WIyWlLk6GJQsqaUBKTNV-2" value="" style="rounded=0;html=1;jettySize=auto;orthogonalLoop=1;fontSize=11;endArrow=block;endFill=0;endSize=8;strokeWidth=1;shadow=0;labelBackgroundColor=none;edgeStyle=orthogonalEdgeStyle;" parent="WIyWlLk6GJQsqaUBKTNV-1" edge="1">
          <mxGeometry relative="1" as="geometry">
            <mxPoint x="219.71" y="350" as="sourcePoint" />
            <mxPoint x="219.73857142857136" y="400.0228571428571" as="targetPoint" />
          </mxGeometry>
        </mxCell>
        <mxCell id="SsW1r-DY5OSFNhnt4VhR-2" style="edgeStyle=orthogonalEdgeStyle;rounded=0;orthogonalLoop=1;jettySize=auto;html=1;entryX=0.5;entryY=0;entryDx=0;entryDy=0;" edge="1" parent="WIyWlLk6GJQsqaUBKTNV-1" source="WIyWlLk6GJQsqaUBKTNV-3">
          <mxGeometry relative="1" as="geometry">
            <mxPoint x="220" y="180" as="targetPoint" />
          </mxGeometry>
        </mxCell>
        <mxCell id="WIyWlLk6GJQsqaUBKTNV-3" value="User access App&amp;nbsp;" style="rounded=1;whiteSpace=wrap;html=1;fontSize=12;glass=0;strokeWidth=1;shadow=0;" parent="WIyWlLk6GJQsqaUBKTNV-1" vertex="1">
          <mxGeometry x="160" y="80" width="120" height="40" as="geometry" />
        </mxCell>
        <mxCell id="WIyWlLk6GJQsqaUBKTNV-5" value="No" style="edgeStyle=orthogonalEdgeStyle;rounded=0;html=1;jettySize=auto;orthogonalLoop=1;fontSize=11;endArrow=block;endFill=0;endSize=8;strokeWidth=1;shadow=0;labelBackgroundColor=none;" parent="WIyWlLk6GJQsqaUBKTNV-1" target="WIyWlLk6GJQsqaUBKTNV-7" edge="1">
          <mxGeometry x="-0.0684" y="10" relative="1" as="geometry">
            <mxPoint as="offset" />
            <mxPoint x="270" y="310" as="sourcePoint" />
          </mxGeometry>
        </mxCell>
        <mxCell id="SsW1r-DY5OSFNhnt4VhR-17" value="" style="edgeStyle=orthogonalEdgeStyle;rounded=0;orthogonalLoop=1;jettySize=auto;html=1;" edge="1" parent="WIyWlLk6GJQsqaUBKTNV-1" source="WIyWlLk6GJQsqaUBKTNV-7" target="SsW1r-DY5OSFNhnt4VhR-16">
          <mxGeometry relative="1" as="geometry" />
        </mxCell>
        <mxCell id="WIyWlLk6GJQsqaUBKTNV-7" value="Client clicks on Login with Strava button" style="rounded=1;whiteSpace=wrap;html=1;fontSize=12;glass=0;strokeWidth=1;shadow=0;" parent="WIyWlLk6GJQsqaUBKTNV-1" vertex="1">
          <mxGeometry x="570" y="290" width="120" height="40" as="geometry" />
        </mxCell>
        <mxCell id="SsW1r-DY5OSFNhnt4VhR-8" style="edgeStyle=orthogonalEdgeStyle;rounded=0;orthogonalLoop=1;jettySize=auto;html=1;entryX=0.5;entryY=0;entryDx=0;entryDy=0;" edge="1" parent="WIyWlLk6GJQsqaUBKTNV-1" source="WIyWlLk6GJQsqaUBKTNV-12" target="SsW1r-DY5OSFNhnt4VhR-7">
          <mxGeometry relative="1" as="geometry" />
        </mxCell>
        <mxCell id="WIyWlLk6GJQsqaUBKTNV-12" value="Client sends jwt to server" style="rounded=1;whiteSpace=wrap;html=1;fontSize=12;glass=0;strokeWidth=1;shadow=0;" parent="WIyWlLk6GJQsqaUBKTNV-1" vertex="1">
          <mxGeometry x="160" y="400" width="120" height="40" as="geometry" />
        </mxCell>
        <mxCell id="SsW1r-DY5OSFNhnt4VhR-3" value="Is a jwt available in localstorage?" style="rhombus;whiteSpace=wrap;html=1;shadow=0;fontFamily=Helvetica;fontSize=12;align=center;strokeWidth=1;spacing=6;spacingTop=-4;" vertex="1" parent="WIyWlLk6GJQsqaUBKTNV-1">
          <mxGeometry x="170" y="270" width="100" height="80" as="geometry" />
        </mxCell>
        <mxCell id="SsW1r-DY5OSFNhnt4VhR-5" style="edgeStyle=orthogonalEdgeStyle;rounded=0;orthogonalLoop=1;jettySize=auto;html=1;entryX=0.5;entryY=0;entryDx=0;entryDy=0;" edge="1" parent="WIyWlLk6GJQsqaUBKTNV-1" source="SsW1r-DY5OSFNhnt4VhR-4" target="SsW1r-DY5OSFNhnt4VhR-3">
          <mxGeometry relative="1" as="geometry" />
        </mxCell>
        <mxCell id="SsW1r-DY5OSFNhnt4VhR-4" value="System checks localstorage" style="rounded=1;whiteSpace=wrap;html=1;fontSize=12;glass=0;strokeWidth=1;shadow=0;" vertex="1" parent="WIyWlLk6GJQsqaUBKTNV-1">
          <mxGeometry x="160" y="180" width="120" height="40" as="geometry" />
        </mxCell>
        <mxCell id="SsW1r-DY5OSFNhnt4VhR-10" style="edgeStyle=orthogonalEdgeStyle;rounded=0;orthogonalLoop=1;jettySize=auto;html=1;exitX=0.5;exitY=1;exitDx=0;exitDy=0;" edge="1" parent="WIyWlLk6GJQsqaUBKTNV-1" source="SsW1r-DY5OSFNhnt4VhR-7" target="SsW1r-DY5OSFNhnt4VhR-9">
          <mxGeometry relative="1" as="geometry" />
        </mxCell>
        <mxCell id="SsW1r-DY5OSFNhnt4VhR-7" value="Server takes jwt&amp;nbsp;" style="rounded=1;whiteSpace=wrap;html=1;fontSize=12;glass=0;strokeWidth=1;shadow=0;" vertex="1" parent="WIyWlLk6GJQsqaUBKTNV-1">
          <mxGeometry x="160" y="500" width="120" height="40" as="geometry" />
        </mxCell>
        <mxCell id="SsW1r-DY5OSFNhnt4VhR-12" style="edgeStyle=orthogonalEdgeStyle;rounded=0;orthogonalLoop=1;jettySize=auto;html=1;" edge="1" parent="WIyWlLk6GJQsqaUBKTNV-1" source="SsW1r-DY5OSFNhnt4VhR-9" target="SsW1r-DY5OSFNhnt4VhR-11">
          <mxGeometry relative="1" as="geometry" />
        </mxCell>
        <mxCell id="SsW1r-DY5OSFNhnt4VhR-70" value="" style="edgeStyle=orthogonalEdgeStyle;rounded=0;orthogonalLoop=1;jettySize=auto;html=1;" edge="1" parent="WIyWlLk6GJQsqaUBKTNV-1" source="SsW1r-DY5OSFNhnt4VhR-9" target="SsW1r-DY5OSFNhnt4VhR-69">
          <mxGeometry relative="1" as="geometry" />
        </mxCell>
        <mxCell id="SsW1r-DY5OSFNhnt4VhR-9" value="Server checks if jwt is available in database" style="rounded=1;whiteSpace=wrap;html=1;fontSize=12;glass=0;strokeWidth=1;shadow=0;" vertex="1" parent="WIyWlLk6GJQsqaUBKTNV-1">
          <mxGeometry x="160" y="590" width="120" height="40" as="geometry" />
        </mxCell>
        <mxCell id="SsW1r-DY5OSFNhnt4VhR-11" value="User will be linked with the 2 tokens received from st" style="shape=callout;whiteSpace=wrap;html=1;perimeter=calloutPerimeter;" vertex="1" parent="WIyWlLk6GJQsqaUBKTNV-1">
          <mxGeometry x="320" y="530" width="120" height="80" as="geometry" />
        </mxCell>
        <mxCell id="SsW1r-DY5OSFNhnt4VhR-22" value="" style="edgeStyle=orthogonalEdgeStyle;rounded=0;orthogonalLoop=1;jettySize=auto;html=1;" edge="1" parent="WIyWlLk6GJQsqaUBKTNV-1" source="SsW1r-DY5OSFNhnt4VhR-16" target="SsW1r-DY5OSFNhnt4VhR-21">
          <mxGeometry relative="1" as="geometry" />
        </mxCell>
        <mxCell id="SsW1r-DY5OSFNhnt4VhR-16" value="Client is redirected to the url with the cliendId and scope&lt;div&gt;&lt;br/&gt;&lt;/div&gt;" style="whiteSpace=wrap;html=1;rounded=1;glass=0;strokeWidth=1;shadow=0;" vertex="1" parent="WIyWlLk6GJQsqaUBKTNV-1">
          <mxGeometry x="570" y="400" width="120" height="60" as="geometry" />
        </mxCell>
        <mxCell id="SsW1r-DY5OSFNhnt4VhR-24" value="" style="edgeStyle=orthogonalEdgeStyle;rounded=0;orthogonalLoop=1;jettySize=auto;html=1;" edge="1" parent="WIyWlLk6GJQsqaUBKTNV-1" source="SsW1r-DY5OSFNhnt4VhR-21" target="SsW1r-DY5OSFNhnt4VhR-23">
          <mxGeometry relative="1" as="geometry">
            <Array as="points">
              <mxPoint x="690" y="570" />
            </Array>
          </mxGeometry>
        </mxCell>
        <mxCell id="SsW1r-DY5OSFNhnt4VhR-28" value="" style="edgeStyle=orthogonalEdgeStyle;rounded=0;orthogonalLoop=1;jettySize=auto;html=1;" edge="1" parent="WIyWlLk6GJQsqaUBKTNV-1" source="SsW1r-DY5OSFNhnt4VhR-21" target="SsW1r-DY5OSFNhnt4VhR-27">
          <mxGeometry relative="1" as="geometry" />
        </mxCell>
        <mxCell id="SsW1r-DY5OSFNhnt4VhR-29" value="yes" style="edgeLabel;html=1;align=center;verticalAlign=middle;resizable=0;points=[];" vertex="1" connectable="0" parent="SsW1r-DY5OSFNhnt4VhR-28">
          <mxGeometry x="-0.059" y="-1" relative="1" as="geometry">
            <mxPoint as="offset" />
          </mxGeometry>
        </mxCell>
        <mxCell id="SsW1r-DY5OSFNhnt4VhR-21" value="Client accepts scopes?" style="rhombus;whiteSpace=wrap;html=1;rounded=1;glass=0;strokeWidth=1;shadow=0;" vertex="1" parent="WIyWlLk6GJQsqaUBKTNV-1">
          <mxGeometry x="590" y="530" width="80" height="80" as="geometry" />
        </mxCell>
        <mxCell id="SsW1r-DY5OSFNhnt4VhR-23" value="Client is redirected to home page" style="whiteSpace=wrap;html=1;rounded=1;glass=0;strokeWidth=1;shadow=0;" vertex="1" parent="WIyWlLk6GJQsqaUBKTNV-1">
          <mxGeometry x="730" y="540" width="120" height="60" as="geometry" />
        </mxCell>
        <mxCell id="SsW1r-DY5OSFNhnt4VhR-26" value="no" style="text;html=1;align=center;verticalAlign=middle;resizable=0;points=[];autosize=1;strokeColor=none;fillColor=none;" vertex="1" parent="WIyWlLk6GJQsqaUBKTNV-1">
          <mxGeometry x="680" y="548" width="40" height="30" as="geometry" />
        </mxCell>
        <mxCell id="SsW1r-DY5OSFNhnt4VhR-31" value="" style="edgeStyle=orthogonalEdgeStyle;rounded=0;orthogonalLoop=1;jettySize=auto;html=1;" edge="1" parent="WIyWlLk6GJQsqaUBKTNV-1" source="SsW1r-DY5OSFNhnt4VhR-27" target="SsW1r-DY5OSFNhnt4VhR-30">
          <mxGeometry relative="1" as="geometry" />
        </mxCell>
        <mxCell id="SsW1r-DY5OSFNhnt4VhR-27" value="Client is redirected to&amp;nbsp;&lt;br&gt;/exchange_token page" style="whiteSpace=wrap;html=1;rounded=1;glass=0;strokeWidth=1;shadow=0;" vertex="1" parent="WIyWlLk6GJQsqaUBKTNV-1">
          <mxGeometry x="570" y="700" width="120" height="60" as="geometry" />
        </mxCell>
        <mxCell id="SsW1r-DY5OSFNhnt4VhR-97" value="" style="edgeStyle=orthogonalEdgeStyle;rounded=0;orthogonalLoop=1;jettySize=auto;html=1;" edge="1" parent="WIyWlLk6GJQsqaUBKTNV-1" source="SsW1r-DY5OSFNhnt4VhR-30" target="SsW1r-DY5OSFNhnt4VhR-96">
          <mxGeometry relative="1" as="geometry" />
        </mxCell>
        <mxCell id="SsW1r-DY5OSFNhnt4VhR-30" value="Client takes the &#39;code&#39; &amp;amp; &#39;scope&#39; parameters&amp;nbsp;" style="whiteSpace=wrap;html=1;rounded=1;glass=0;strokeWidth=1;shadow=0;" vertex="1" parent="WIyWlLk6GJQsqaUBKTNV-1">
          <mxGeometry x="570" y="840" width="120" height="60" as="geometry" />
        </mxCell>
        <mxCell id="SsW1r-DY5OSFNhnt4VhR-36" value="" style="edgeStyle=orthogonalEdgeStyle;rounded=0;orthogonalLoop=1;jettySize=auto;html=1;" edge="1" parent="WIyWlLk6GJQsqaUBKTNV-1" source="SsW1r-DY5OSFNhnt4VhR-33" target="SsW1r-DY5OSFNhnt4VhR-35">
          <mxGeometry relative="1" as="geometry" />
        </mxCell>
        <mxCell id="SsW1r-DY5OSFNhnt4VhR-48" style="edgeStyle=orthogonalEdgeStyle;rounded=0;orthogonalLoop=1;jettySize=auto;html=1;exitX=1;exitY=1;exitDx=0;exitDy=0;entryX=0.531;entryY=0.15;entryDx=0;entryDy=0;entryPerimeter=0;" edge="1" parent="WIyWlLk6GJQsqaUBKTNV-1">
          <mxGeometry relative="1" as="geometry">
            <mxPoint x="690" y="1199" as="sourcePoint" />
            <mxPoint x="853.7199999999998" y="1471.0000000000002" as="targetPoint" />
            <Array as="points">
              <mxPoint x="690" y="1200" />
              <mxPoint x="854" y="1200" />
            </Array>
          </mxGeometry>
        </mxCell>
        <mxCell id="SsW1r-DY5OSFNhnt4VhR-49" value="This is the failed request" style="edgeLabel;html=1;align=center;verticalAlign=middle;resizable=0;points=[];" vertex="1" connectable="0" parent="SsW1r-DY5OSFNhnt4VhR-48">
          <mxGeometry x="-0.4086" y="-4" relative="1" as="geometry">
            <mxPoint x="102" y="86" as="offset" />
          </mxGeometry>
        </mxCell>
        <mxCell id="SsW1r-DY5OSFNhnt4VhR-33" value="Client sends the 2 params to server" style="whiteSpace=wrap;html=1;rounded=1;glass=0;strokeWidth=1;shadow=0;" vertex="1" parent="WIyWlLk6GJQsqaUBKTNV-1">
          <mxGeometry x="570" y="1169" width="120" height="60" as="geometry" />
        </mxCell>
        <mxCell id="SsW1r-DY5OSFNhnt4VhR-38" value="" style="edgeStyle=orthogonalEdgeStyle;rounded=0;orthogonalLoop=1;jettySize=auto;html=1;" edge="1" parent="WIyWlLk6GJQsqaUBKTNV-1" source="SsW1r-DY5OSFNhnt4VhR-35" target="SsW1r-DY5OSFNhnt4VhR-37">
          <mxGeometry relative="1" as="geometry" />
        </mxCell>
        <mxCell id="SsW1r-DY5OSFNhnt4VhR-52" style="edgeStyle=orthogonalEdgeStyle;rounded=0;orthogonalLoop=1;jettySize=auto;html=1;" edge="1" parent="WIyWlLk6GJQsqaUBKTNV-1" source="SsW1r-DY5OSFNhnt4VhR-35">
          <mxGeometry relative="1" as="geometry">
            <mxPoint x="860" y="1339" as="targetPoint" />
          </mxGeometry>
        </mxCell>
        <mxCell id="SsW1r-DY5OSFNhnt4VhR-35" value="Server receives the params" style="whiteSpace=wrap;html=1;rounded=1;glass=0;strokeWidth=1;shadow=0;" vertex="1" parent="WIyWlLk6GJQsqaUBKTNV-1">
          <mxGeometry x="570" y="1309" width="120" height="60" as="geometry" />
        </mxCell>
        <mxCell id="SsW1r-DY5OSFNhnt4VhR-42" value="" style="edgeStyle=orthogonalEdgeStyle;rounded=0;orthogonalLoop=1;jettySize=auto;html=1;" edge="1" parent="WIyWlLk6GJQsqaUBKTNV-1" source="SsW1r-DY5OSFNhnt4VhR-37" target="SsW1r-DY5OSFNhnt4VhR-41">
          <mxGeometry relative="1" as="geometry" />
        </mxCell>
        <mxCell id="SsW1r-DY5OSFNhnt4VhR-37" value="Server makes a post req to strava with the 2 params" style="whiteSpace=wrap;html=1;rounded=1;glass=0;strokeWidth=1;shadow=0;" vertex="1" parent="WIyWlLk6GJQsqaUBKTNV-1">
          <mxGeometry x="570" y="1449" width="120" height="60" as="geometry" />
        </mxCell>
        <mxCell id="SsW1r-DY5OSFNhnt4VhR-44" value="" style="edgeStyle=orthogonalEdgeStyle;rounded=0;orthogonalLoop=1;jettySize=auto;html=1;" edge="1" parent="WIyWlLk6GJQsqaUBKTNV-1" source="SsW1r-DY5OSFNhnt4VhR-41" target="SsW1r-DY5OSFNhnt4VhR-43">
          <mxGeometry relative="1" as="geometry" />
        </mxCell>
        <mxCell id="SsW1r-DY5OSFNhnt4VhR-45" value="no" style="edgeLabel;html=1;align=center;verticalAlign=middle;resizable=0;points=[];" vertex="1" connectable="0" parent="SsW1r-DY5OSFNhnt4VhR-44">
          <mxGeometry x="0.0552" y="-2" relative="1" as="geometry">
            <mxPoint as="offset" />
          </mxGeometry>
        </mxCell>
        <mxCell id="SsW1r-DY5OSFNhnt4VhR-55" value="" style="edgeStyle=orthogonalEdgeStyle;rounded=0;orthogonalLoop=1;jettySize=auto;html=1;" edge="1" parent="WIyWlLk6GJQsqaUBKTNV-1" source="SsW1r-DY5OSFNhnt4VhR-41" target="SsW1r-DY5OSFNhnt4VhR-54">
          <mxGeometry relative="1" as="geometry" />
        </mxCell>
        <mxCell id="SsW1r-DY5OSFNhnt4VhR-56" value="yes" style="edgeLabel;html=1;align=center;verticalAlign=middle;resizable=0;points=[];" vertex="1" connectable="0" parent="SsW1r-DY5OSFNhnt4VhR-55">
          <mxGeometry x="-0.3074" relative="1" as="geometry">
            <mxPoint as="offset" />
          </mxGeometry>
        </mxCell>
        <mxCell id="SsW1r-DY5OSFNhnt4VhR-41" value="Did the req succed?" style="rhombus;whiteSpace=wrap;html=1;rounded=1;glass=0;strokeWidth=1;shadow=0;" vertex="1" parent="WIyWlLk6GJQsqaUBKTNV-1">
          <mxGeometry x="590" y="1579" width="80" height="80" as="geometry" />
        </mxCell>
        <mxCell id="SsW1r-DY5OSFNhnt4VhR-47" style="edgeStyle=orthogonalEdgeStyle;rounded=0;orthogonalLoop=1;jettySize=auto;html=1;exitX=0.75;exitY=0;exitDx=0;exitDy=0;" edge="1" parent="WIyWlLk6GJQsqaUBKTNV-1" source="SsW1r-DY5OSFNhnt4VhR-43">
          <mxGeometry relative="1" as="geometry">
            <mxPoint x="850" y="1539" as="targetPoint" />
          </mxGeometry>
        </mxCell>
        <mxCell id="SsW1r-DY5OSFNhnt4VhR-43" value="return failed req to client / client redirects to home page" style="whiteSpace=wrap;html=1;rounded=1;glass=0;strokeWidth=1;shadow=0;" vertex="1" parent="WIyWlLk6GJQsqaUBKTNV-1">
          <mxGeometry x="730" y="1589" width="120" height="60" as="geometry" />
        </mxCell>
        <mxCell id="SsW1r-DY5OSFNhnt4VhR-46" value="Here client has do decide how to handle the failed request" style="ellipse;shape=cloud;whiteSpace=wrap;html=1;" vertex="1" parent="WIyWlLk6GJQsqaUBKTNV-1">
          <mxGeometry x="790" y="1270" width="120" height="80" as="geometry" />
        </mxCell>
        <mxCell id="SsW1r-DY5OSFNhnt4VhR-58" value="" style="edgeStyle=orthogonalEdgeStyle;rounded=0;orthogonalLoop=1;jettySize=auto;html=1;" edge="1" parent="WIyWlLk6GJQsqaUBKTNV-1" source="SsW1r-DY5OSFNhnt4VhR-54" target="SsW1r-DY5OSFNhnt4VhR-57">
          <mxGeometry relative="1" as="geometry" />
        </mxCell>
        <mxCell id="SsW1r-DY5OSFNhnt4VhR-54" value="Server takes the 2 tokens and athlete received from strava and stores them&amp;nbsp;" style="whiteSpace=wrap;html=1;rounded=1;glass=0;strokeWidth=1;shadow=0;" vertex="1" parent="WIyWlLk6GJQsqaUBKTNV-1">
          <mxGeometry x="570" y="1749" width="120" height="60" as="geometry" />
        </mxCell>
        <mxCell id="SsW1r-DY5OSFNhnt4VhR-60" value="" style="edgeStyle=orthogonalEdgeStyle;rounded=0;orthogonalLoop=1;jettySize=auto;html=1;" edge="1" parent="WIyWlLk6GJQsqaUBKTNV-1" source="SsW1r-DY5OSFNhnt4VhR-57" target="SsW1r-DY5OSFNhnt4VhR-59">
          <mxGeometry relative="1" as="geometry" />
        </mxCell>
        <mxCell id="SsW1r-DY5OSFNhnt4VhR-57" value="Server creates a jwt token and stores that for that athlete" style="whiteSpace=wrap;html=1;rounded=1;glass=0;strokeWidth=1;shadow=0;" vertex="1" parent="WIyWlLk6GJQsqaUBKTNV-1">
          <mxGeometry x="570" y="1889" width="120" height="60" as="geometry" />
        </mxCell>
        <mxCell id="SsW1r-DY5OSFNhnt4VhR-62" value="" style="edgeStyle=orthogonalEdgeStyle;rounded=0;orthogonalLoop=1;jettySize=auto;html=1;" edge="1" parent="WIyWlLk6GJQsqaUBKTNV-1" source="SsW1r-DY5OSFNhnt4VhR-59" target="SsW1r-DY5OSFNhnt4VhR-61">
          <mxGeometry relative="1" as="geometry" />
        </mxCell>
        <mxCell id="SsW1r-DY5OSFNhnt4VhR-59" value="Server returns the jwt token to client" style="whiteSpace=wrap;html=1;rounded=1;glass=0;strokeWidth=1;shadow=0;" vertex="1" parent="WIyWlLk6GJQsqaUBKTNV-1">
          <mxGeometry x="570" y="2029" width="120" height="60" as="geometry" />
        </mxCell>
        <mxCell id="SsW1r-DY5OSFNhnt4VhR-64" value="" style="edgeStyle=orthogonalEdgeStyle;rounded=0;orthogonalLoop=1;jettySize=auto;html=1;" edge="1" parent="WIyWlLk6GJQsqaUBKTNV-1" source="SsW1r-DY5OSFNhnt4VhR-61" target="SsW1r-DY5OSFNhnt4VhR-63">
          <mxGeometry relative="1" as="geometry" />
        </mxCell>
        <mxCell id="SsW1r-DY5OSFNhnt4VhR-61" value="Client is now authenticated" style="whiteSpace=wrap;html=1;rounded=1;glass=0;strokeWidth=1;shadow=0;" vertex="1" parent="WIyWlLk6GJQsqaUBKTNV-1">
          <mxGeometry x="570" y="2169" width="120" height="60" as="geometry" />
        </mxCell>
        <mxCell id="SsW1r-DY5OSFNhnt4VhR-66" value="" style="edgeStyle=orthogonalEdgeStyle;rounded=0;orthogonalLoop=1;jettySize=auto;html=1;" edge="1" parent="WIyWlLk6GJQsqaUBKTNV-1" source="SsW1r-DY5OSFNhnt4VhR-63" target="SsW1r-DY5OSFNhnt4VhR-65">
          <mxGeometry relative="1" as="geometry" />
        </mxCell>
        <mxCell id="SsW1r-DY5OSFNhnt4VhR-63" value="Client stores the jwt in localstorage" style="whiteSpace=wrap;html=1;rounded=1;glass=0;strokeWidth=1;shadow=0;" vertex="1" parent="WIyWlLk6GJQsqaUBKTNV-1">
          <mxGeometry x="570" y="2309" width="120" height="60" as="geometry" />
        </mxCell>
        <mxCell id="SsW1r-DY5OSFNhnt4VhR-65" value="If client makes a req, the jwt is always asked" style="whiteSpace=wrap;html=1;rounded=1;glass=0;strokeWidth=1;shadow=0;" vertex="1" parent="WIyWlLk6GJQsqaUBKTNV-1">
          <mxGeometry x="570" y="2449" width="120" height="60" as="geometry" />
        </mxCell>
        <mxCell id="SsW1r-DY5OSFNhnt4VhR-72" value="" style="edgeStyle=orthogonalEdgeStyle;rounded=0;orthogonalLoop=1;jettySize=auto;html=1;" edge="1" parent="WIyWlLk6GJQsqaUBKTNV-1" source="SsW1r-DY5OSFNhnt4VhR-69" target="SsW1r-DY5OSFNhnt4VhR-71">
          <mxGeometry relative="1" as="geometry" />
        </mxCell>
        <mxCell id="SsW1r-DY5OSFNhnt4VhR-73" value="No" style="edgeLabel;html=1;align=center;verticalAlign=middle;resizable=0;points=[];" vertex="1" connectable="0" parent="SsW1r-DY5OSFNhnt4VhR-72">
          <mxGeometry x="0.0143" y="-2" relative="1" as="geometry">
            <mxPoint as="offset" />
          </mxGeometry>
        </mxCell>
        <mxCell id="SsW1r-DY5OSFNhnt4VhR-77" value="" style="edgeStyle=orthogonalEdgeStyle;rounded=0;orthogonalLoop=1;jettySize=auto;html=1;" edge="1" parent="WIyWlLk6GJQsqaUBKTNV-1" source="SsW1r-DY5OSFNhnt4VhR-69" target="SsW1r-DY5OSFNhnt4VhR-76">
          <mxGeometry relative="1" as="geometry" />
        </mxCell>
        <mxCell id="SsW1r-DY5OSFNhnt4VhR-78" value="yes" style="edgeLabel;html=1;align=center;verticalAlign=middle;resizable=0;points=[];" vertex="1" connectable="0" parent="SsW1r-DY5OSFNhnt4VhR-77">
          <mxGeometry x="-0.1206" y="3" relative="1" as="geometry">
            <mxPoint as="offset" />
          </mxGeometry>
        </mxCell>
        <mxCell id="SsW1r-DY5OSFNhnt4VhR-80" value="" style="edgeStyle=orthogonalEdgeStyle;rounded=0;orthogonalLoop=1;jettySize=auto;html=1;" edge="1" parent="WIyWlLk6GJQsqaUBKTNV-1" source="SsW1r-DY5OSFNhnt4VhR-69" target="SsW1r-DY5OSFNhnt4VhR-79">
          <mxGeometry relative="1" as="geometry" />
        </mxCell>
        <mxCell id="SsW1r-DY5OSFNhnt4VhR-69" value="Is jwt&amp;amp;athlete available?" style="rhombus;whiteSpace=wrap;html=1;rounded=1;glass=0;strokeWidth=1;shadow=0;" vertex="1" parent="WIyWlLk6GJQsqaUBKTNV-1">
          <mxGeometry x="180" y="690" width="80" height="80" as="geometry" />
        </mxCell>
        <mxCell id="SsW1r-DY5OSFNhnt4VhR-75" value="" style="edgeStyle=orthogonalEdgeStyle;rounded=0;orthogonalLoop=1;jettySize=auto;html=1;" edge="1" parent="WIyWlLk6GJQsqaUBKTNV-1" source="SsW1r-DY5OSFNhnt4VhR-71" target="SsW1r-DY5OSFNhnt4VhR-74">
          <mxGeometry relative="1" as="geometry" />
        </mxCell>
        <mxCell id="SsW1r-DY5OSFNhnt4VhR-71" value="Server sends back that user is not logged in or smth" style="whiteSpace=wrap;html=1;rounded=1;glass=0;strokeWidth=1;shadow=0;" vertex="1" parent="WIyWlLk6GJQsqaUBKTNV-1">
          <mxGeometry x="320" y="700" width="120" height="60" as="geometry" />
        </mxCell>
        <mxCell id="SsW1r-DY5OSFNhnt4VhR-74" value="Client is redirect to home page, jwt is deleted from localstorage" style="whiteSpace=wrap;html=1;rounded=1;glass=0;strokeWidth=1;shadow=0;" vertex="1" parent="WIyWlLk6GJQsqaUBKTNV-1">
          <mxGeometry x="320" y="830" width="120" height="60" as="geometry" />
        </mxCell>
        <mxCell id="SsW1r-DY5OSFNhnt4VhR-84" value="" style="edgeStyle=orthogonalEdgeStyle;rounded=0;orthogonalLoop=1;jettySize=auto;html=1;" edge="1" parent="WIyWlLk6GJQsqaUBKTNV-1" source="SsW1r-DY5OSFNhnt4VhR-76" target="SsW1r-DY5OSFNhnt4VhR-83">
          <mxGeometry relative="1" as="geometry" />
        </mxCell>
        <mxCell id="SsW1r-DY5OSFNhnt4VhR-76" value="Server checks if access_token is valid(might be expired)" style="whiteSpace=wrap;html=1;rounded=1;glass=0;strokeWidth=1;shadow=0;" vertex="1" parent="WIyWlLk6GJQsqaUBKTNV-1">
          <mxGeometry x="160" y="860" width="120" height="60" as="geometry" />
        </mxCell>
        <mxCell id="SsW1r-DY5OSFNhnt4VhR-79" value="What happens if jwt is wrong? &lt;br&gt;If it&#39;s wrong, just login again" style="ellipse;shape=cloud;whiteSpace=wrap;html=1;rounded=1;glass=0;strokeWidth=1;shadow=0;" vertex="1" parent="WIyWlLk6GJQsqaUBKTNV-1">
          <mxGeometry x="-110" y="640" width="230" height="120" as="geometry" />
        </mxCell>
        <mxCell id="SsW1r-DY5OSFNhnt4VhR-86" value="" style="edgeStyle=orthogonalEdgeStyle;rounded=0;orthogonalLoop=1;jettySize=auto;html=1;" edge="1" parent="WIyWlLk6GJQsqaUBKTNV-1" source="SsW1r-DY5OSFNhnt4VhR-83" target="SsW1r-DY5OSFNhnt4VhR-85">
          <mxGeometry relative="1" as="geometry" />
        </mxCell>
        <mxCell id="SsW1r-DY5OSFNhnt4VhR-89" value="" style="edgeStyle=orthogonalEdgeStyle;rounded=0;orthogonalLoop=1;jettySize=auto;html=1;" edge="1" parent="WIyWlLk6GJQsqaUBKTNV-1" source="SsW1r-DY5OSFNhnt4VhR-83" target="SsW1r-DY5OSFNhnt4VhR-88">
          <mxGeometry relative="1" as="geometry" />
        </mxCell>
        <mxCell id="SsW1r-DY5OSFNhnt4VhR-90" value="No" style="edgeLabel;html=1;align=center;verticalAlign=middle;resizable=0;points=[];" vertex="1" connectable="0" parent="SsW1r-DY5OSFNhnt4VhR-89">
          <mxGeometry x="-0.3429" y="-3" relative="1" as="geometry">
            <mxPoint as="offset" />
          </mxGeometry>
        </mxCell>
        <mxCell id="SsW1r-DY5OSFNhnt4VhR-83" value="Is access_token expired?" style="rhombus;whiteSpace=wrap;html=1;rounded=1;glass=0;strokeWidth=1;shadow=0;" vertex="1" parent="WIyWlLk6GJQsqaUBKTNV-1">
          <mxGeometry x="180" y="990" width="80" height="80" as="geometry" />
        </mxCell>
        <mxCell id="SsW1r-DY5OSFNhnt4VhR-85" value="Make post again to strava with refresh token to get new access_token" style="whiteSpace=wrap;html=1;rounded=1;glass=0;strokeWidth=1;shadow=0;" vertex="1" parent="WIyWlLk6GJQsqaUBKTNV-1">
          <mxGeometry x="320" y="1000" width="120" height="60" as="geometry" />
        </mxCell>
        <mxCell id="SsW1r-DY5OSFNhnt4VhR-87" value="yes" style="text;html=1;align=center;verticalAlign=middle;resizable=0;points=[];autosize=1;strokeColor=none;fillColor=none;" vertex="1" parent="WIyWlLk6GJQsqaUBKTNV-1">
          <mxGeometry x="260" y="1018" width="40" height="30" as="geometry" />
        </mxCell>
        <mxCell id="SsW1r-DY5OSFNhnt4VhR-88" value="User is logged in" style="whiteSpace=wrap;html=1;rounded=1;glass=0;strokeWidth=1;shadow=0;" vertex="1" parent="WIyWlLk6GJQsqaUBKTNV-1">
          <mxGeometry x="160" y="1160" width="120" height="60" as="geometry" />
        </mxCell>
        <mxCell id="SsW1r-DY5OSFNhnt4VhR-98" style="edgeStyle=orthogonalEdgeStyle;rounded=0;orthogonalLoop=1;jettySize=auto;html=1;" edge="1" parent="WIyWlLk6GJQsqaUBKTNV-1" source="SsW1r-DY5OSFNhnt4VhR-96" target="SsW1r-DY5OSFNhnt4VhR-33">
          <mxGeometry relative="1" as="geometry" />
        </mxCell>
        <mxCell id="SsW1r-DY5OSFNhnt4VhR-96" value="Client shows a page for &quot;Loading&quot;" style="whiteSpace=wrap;html=1;rounded=1;glass=0;strokeWidth=1;shadow=0;" vertex="1" parent="WIyWlLk6GJQsqaUBKTNV-1">
          <mxGeometry x="570" y="980" width="120" height="60" as="geometry" />
        </mxCell>
      </root>
    </mxGraphModel>
  </diagram>
</mxfile>
